<svg xmlns="http://www.w3.org/2000/svg" width="162.659" height="162.07" viewBox="0 0 162.659 162.07"><g transform="matrix(0.724, -0.69, 0.69, 0.724, -141.017, 75.37)"><path d="M60.5,0,121,103.833H0Z" transform="translate(96.5 106)" fill="none" stroke="#7f82e2" stroke-width="1.5"/><path d="M15,0,30,25.833H0Z" transform="translate(127 184)" fill="none" stroke="#7f82e2" stroke-width="1.5"/><path d="M15,0,30,25.833H0Z" transform="translate(157 184)" fill="none" stroke="#7f82e2" stroke-width="1.5"/><path d="M15,0,30,25.833H0Z" transform="translate(187 184)" fill="none" stroke="#7f82e2" stroke-width="1.5"/><path d="M15,0,30,25.833H0Z" transform="translate(172 158)" fill="none" stroke="#7f82e2" stroke-width="1.5"/><path d="M15,0,30,25.833H0Z" transform="translate(142 158)" fill="none" stroke="#7f82e2" stroke-width="1.5"/><path d="M15,0,30,25.833H0Z" transform="translate(97 184)" fill="none" stroke="#7f82e2" stroke-width="1.5"/><path d="M15,0,30,25.833H0Z" transform="translate(112 158)" fill="none" stroke="#7f82e2" stroke-width="1.5"/><path d="M15,0,30,25.833H0Z" transform="translate(127 132)" fill="none" stroke="#7f82e2" stroke-width="1.5"/><path d="M15,0,30,25.833H0Z" transform="translate(157 132)" fill="none" stroke="#7f82e2" stroke-width="1.5"/><path d="M15,0,30,25.833H0Z" transform="translate(142 106)" fill="none" stroke="#7f82e2" stroke-linecap="square" stroke-width="1.5"/><path d="M157,106" fill="none" stroke="#7f82e2" stroke-width="1.5"/></g></svg>