<?xml version="1.0" encoding="utf-8"?>
<!-- Generator: Adobe Illustrator 22.0.1, SVG Export Plug-In . SVG Version: 6.00 Build 0)  -->
<svg version="1.1" id="Layer_1" xmlns="http://www.w3.org/2000/svg" xmlns:xlink="http://www.w3.org/1999/xlink" x="0px" y="0px"
	 viewBox="0 0 480 340" style="enable-background:new 0 0 480 340;" xml:space="preserve">
<style type="text/css">
	.st0{fill:#7FD3FF;}
	.st1{fill:#FF7FA8;}
	.st2{fill:#F4FF7F;}
	.st3{fill:#1A1819;}
	.st4{fill:#5EFFB1;}
	.st5{fill:#A7EEE6;}
	.st6{fill:#F2A5C4;stroke:#1A1819;stroke-miterlimit:10;}
	.st7{fill:#FFDDA1;}
	.st8{fill:#DED1FC;}
</style>
<g>
	<rect y="-87" class="st0" width="76" height="76"/>
</g>
<g>
	<rect x="94" y="-87" class="st1" width="76" height="76"/>
</g>
<g>
	<rect x="189" y="-87" class="st2" width="76" height="76"/>
</g>
<g>
	<rect x="379" y="-87" class="st3" width="76" height="76"/>
</g>
<g>
	<rect x="284" y="-87" class="st4" width="76" height="76"/>
</g>
<image style="overflow:visible;enable-background:new    ;" width="1400" height="842" xlink:href="E647C63E.jpg"  transform="matrix(0.6177 0 0 0.5578 -932.7133 -66.0212)">
</image>
<g>
	<rect x="6.9" y="5.6" transform="matrix(0.9106 -0.4134 0.4134 0.9106 -5.0108 8.4818)" class="st5" width="20.4" height="20.4"/>
	<path class="st3" d="M22,3l8,17.7l-17.7,8L4.3,11L22,3 M22.5,1.6L3,10.5L11.8,30l19.5-8.9L22.5,1.6L22.5,1.6z"/>
</g>
<g>
	<polygon class="st6" points="46,61.3 43.4,51.3 46.2,50.5 48.2,58.2 57.4,57.5 59.7,66.4 68.9,65.7 71.5,75.7 68.7,76.5 66.7,68.8 
		57.5,69.5 55.2,60.6 	"/>
</g>
<g>
	<path class="st7" d="M84.3,25c-4.8,0-8.7-3.9-8.7-8.7s3.9-8.7,8.7-8.7c4.8,0,8.7,3.9,8.7,8.7S89.1,25,84.3,25z"/>
	<path class="st3" d="M84.3,8c4.5,0,8.2,3.7,8.2,8.2s-3.7,8.2-8.2,8.2s-8.2-3.7-8.2-8.2S79.7,8,84.3,8 M84.3,7
		c-5.1,0-9.2,4.1-9.2,9.2s4.1,9.2,9.2,9.2s9.2-4.1,9.2-9.2S89.4,7,84.3,7L84.3,7z"/>
</g>
<g>
	<path class="st7" d="M12.3,101c-4.8,0-8.7-3.9-8.7-8.7c0-4.8,3.9-8.7,8.7-8.7s8.7,3.9,8.7,8.7S17.1,101,12.3,101z"/>
	<path class="st3" d="M12.3,84c4.5,0,8.2,3.7,8.2,8.2s-3.7,8.2-8.2,8.2S4,96.8,4,92.2C4,87.7,7.7,84,12.3,84 M12.3,83
		C7.2,83,3,87.1,3,92.2s4.1,9.2,9.2,9.2s9.2-4.1,9.2-9.2C21.5,87.1,17.4,83,12.3,83L12.3,83z"/>
</g>
<g>
	<polygon class="st8" points="107.8,63.2 126,81.8 105,89.1 	"/>
	<path class="st3" d="M108.2,64.3l16.9,17.2l-19.5,6.8L108.2,64.3 M107.4,62.1l-2.9,27.7L127,82L107.4,62.1L107.4,62.1z"/>
</g>
<g>
	<polygon class="st6" points="128.2,32.3 117.9,33.1 117.7,30.2 125.6,29.6 126.5,20.5 135.7,19.8 136.6,10.7 147,9.9 147.2,12.8 
		139.3,13.4 138.3,22.5 129.2,23.2 	"/>
</g>
<g>
	
		<rect x="46.9" y="110.7" transform="matrix(0.2686 -0.9633 0.9633 0.2686 -74.6432 143.4142)" class="st5" width="20.4" height="20.4"/>
	<path class="st3" d="M50.4,108.9l18.7,5.2l-5.2,18.7l-18.7-5.2L50.4,108.9 M49.7,107.6L44,128.3l20.6,5.8l5.8-20.6L49.7,107.6
		L49.7,107.6z"/>
</g>
<g>
	<polygon class="st8" points="6.2,172.2 27.6,166.5 22.9,192.1 	"/>
	<path class="st3" d="M27,167.2l-4.4,23.7L7,172.5L27,167.2 M28.3,165.8l-23,6.1l18,21.3L28.3,165.8L28.3,165.8z"/>
</g>
<g>
	<polygon class="st6" points="77.6,177.5 67.3,178.6 66.9,175.7 74.8,174.8 75.5,165.7 84.6,164.7 85.3,155.5 95.6,154.4 96,157.3 
		88.1,158.2 87.4,167.3 78.3,168.3 	"/>
</g>
<g>
	<path class="st7" d="M127.3,141c-4.8,0-8.7-3.9-8.7-8.7s3.9-8.7,8.7-8.7c4.8,0,8.7,3.9,8.7,8.7C136,137.1,132.1,141,127.3,141z"/>
	<path class="st3" d="M127.3,124c4.5,0,8.2,3.7,8.2,8.2s-3.7,8.2-8.2,8.2s-8.2-3.7-8.2-8.2C119,127.7,122.7,124,127.3,124
		 M127.3,123c-5.1,0-9.2,4.1-9.2,9.2c0,5.1,4.1,9.2,9.2,9.2c5.1,0,9.2-4.1,9.2-9.2C136.5,127.1,132.4,123,127.3,123L127.3,123z"/>
</g>
<g>
	
		<rect x="6.9" y="220.6" transform="matrix(0.9106 -0.4134 0.4134 0.9106 -93.8922 27.7131)" class="st5" width="20.4" height="20.4"/>
	<path class="st3" d="M22,218l8,17.7l-17.7,8l-8-17.7L22,218 M22.5,216.6L3,225.5l8.9,19.5l19.5-8.9L22.5,216.6L22.5,216.6z"/>
</g>
<g>
	<polygon class="st6" points="31.9,293.5 34.7,303.5 31.8,304.3 29.7,296.7 20.6,297.5 18.1,288.7 9,289.5 6.2,279.5 9.1,278.7 
		11.2,286.3 20.3,285.5 22.8,294.3 	"/>
</g>
<g>
	<path class="st7" d="M76.3,249c-4.8,0-8.7-3.9-8.7-8.7s3.9-8.7,8.7-8.7c4.8,0,8.7,3.9,8.7,8.7S81.1,249,76.3,249z"/>
	<path class="st3" d="M76.3,232c4.5,0,8.2,3.7,8.2,8.2s-3.7,8.2-8.2,8.2s-8.2-3.7-8.2-8.2S71.7,232,76.3,232 M76.3,231
		c-5.1,0-9.2,4.1-9.2,9.2s4.1,9.2,9.2,9.2s9.2-4.1,9.2-9.2S81.4,231,76.3,231L76.3,231z"/>
</g>
<g>
	<polygon class="st8" points="108.6,198.7 123.7,177.6 130.4,202.7 	"/>
	<path class="st3" d="M123.5,178.8l6.2,23.3l-20.3-3.7L123.5,178.8 M123.9,176.5l-16.3,22.6l23.4,4.3L123.9,176.5L123.9,176.5z"/>
</g>
<g>
	<polygon class="st6" points="124.3,244.8 114.4,241.3 115.4,238.6 122.9,241.2 127.4,233.2 136.1,236.2 140.6,228.3 150.5,231.7 
		149.5,234.4 142,231.8 137.4,239.8 128.8,236.8 	"/>
</g>
<g>
	
		<rect x="124.9" y="274.7" transform="matrix(0.181 -0.9835 0.9835 0.181 -169.4867 366.1764)" class="st5" width="20.4" height="20.4"/>
	<path class="st3" d="M127.4,273.5l19.1,3.5l-3.5,19.1l-19.1-3.5L127.4,273.5 M126.6,272.4l-3.9,21.1l21.1,3.9l3.9-21.1L126.6,272.4
		L126.6,272.4z"/>
</g>
<g>
	<polygon class="st8" points="76.4,309.2 98.3,313.2 83.1,334.3 	"/>
	<path class="st3" d="M77.1,309.8l20.3,3.7l-14.1,19.6L77.1,309.8 M75.7,308.6l7.1,26.9l16.3-22.6L75.7,308.6L75.7,308.6z"/>
</g>
<g>
	<polygon class="st5" points="272.8,322.3 291.4,313.7 299.8,332.7 281.2,341.3 	"/>
	<path class="st3" d="M291.1,314.3l8,18.1l-17.7,8.2l-8-18.1L291.1,314.3 M291.6,313l-19.5,9l8.9,19.9l19.5-9L291.6,313L291.6,313z"
		/>
</g>
<g>
	<polygon class="st6" points="257.4,281 260.1,291.3 257.2,292 255.2,284.2 246.1,284.9 243.7,275.9 234.6,276.6 231.9,266.4 
		234.7,265.6 236.8,273.4 245.9,272.7 248.3,281.7 	"/>
</g>
<g>
	<path class="st7" d="M219.1,336c-4.8,0-8.7-4-8.7-8.9s3.9-8.9,8.7-8.9s8.7,4,8.7,8.9S224,336,219.1,336z"/>
	<path class="st3" d="M219.1,318.6c4.5,0,8.2,3.8,8.2,8.4s-3.7,8.4-8.2,8.4s-8.2-3.8-8.2-8.4S214.6,318.6,219.1,318.6 M219.1,317.6
		c-5.1,0-9.2,4.2-9.2,9.4c0,5.2,4.1,9.4,9.2,9.4c5.1,0,9.2-4.2,9.2-9.4C228.4,321.8,224.3,317.6,219.1,317.6L219.1,317.6z"/>
</g>
<g>
	<path class="st7" d="M291.1,258.4c-4.8,0-8.8-4-8.8-8.9s3.9-8.9,8.8-8.9c4.8,0,8.7,4,8.7,8.9C299.9,254.4,296,258.4,291.1,258.4z"
		/>
	<path class="st3" d="M291.1,241c4.5,0,8.2,3.8,8.2,8.4s-3.7,8.4-8.2,8.4s-8.2-3.8-8.2-8.4S286.6,241,291.1,241 M291.1,240
		c-5.1,0-9.2,4.2-9.2,9.4s4.1,9.4,9.2,9.4s9.2-4.2,9.2-9.4C300.4,244.2,296.3,240,291.1,240L291.1,240z"/>
</g>
<g>
	<polygon class="st8" points="177.4,260.2 198.4,252.7 195.7,279.1 	"/>
	<path class="st3" d="M197.8,253.4l-2.6,24.5l-17-17.6L197.8,253.4 M199,251.9l-22.5,8l19.5,20.3L199,251.9L199,251.9z"/>
</g>
<g>
	<polygon class="st6" points="175.2,310.6 185.5,309.8 185.8,312.8 177.9,313.4 176.9,322.7 167.7,323.4 166.8,332.7 156.4,333.6 
		156.2,330.6 164.1,329.9 165.1,320.6 174.2,319.9 	"/>
</g>
<g>
	<polygon class="st5" points="233.7,227.5 239.2,207.4 258.9,213 253.4,233.1 	"/>
	<path class="st3" d="M239.6,208.1l18.7,5.3l-5.2,19.1l-18.7-5.3L239.6,208.1 M238.9,206.8l-5.8,21.1l20.6,5.9l5.8-21.1L238.9,206.8
		L238.9,206.8z"/>
</g>
<g>
	<polygon class="st8" points="280.5,147.6 297.3,167.9 275.8,173.7 	"/>
	<path class="st3" d="M280.8,148.7l15.6,18.9l-20,5.4L280.8,148.7 M280.2,146.4l-5,28l23-6.2L280.2,146.4L280.2,146.4z"/>
</g>
<g>
	<polygon class="st6" points="225.8,162.5 236.2,161.3 236.5,164.3 228.6,165.2 227.9,174.5 218.8,175.5 218.1,184.9 207.8,186 
		207.5,183 215.4,182.2 216.1,172.8 225.2,171.8 	"/>
</g>
<g>
	<ellipse class="st7" cx="176.1" cy="208.6" rx="8.7" ry="8.9"/>
	<path class="st3" d="M176.1,200.2c4.5,0,8.2,3.8,8.2,8.4s-3.7,8.4-8.2,8.4s-8.2-3.8-8.2-8.4S171.6,200.2,176.1,200.2 M176.1,199.2
		c-5.1,0-9.2,4.2-9.2,9.4s4.1,9.4,9.2,9.4c5.1,0,9.2-4.2,9.2-9.4C185.4,203.4,181.3,199.2,176.1,199.2L176.1,199.2z"/>
</g>
<g>
	<polygon class="st5" points="272.8,102.8 291.4,94.2 299.8,113.2 281.2,121.8 	"/>
	<path class="st3" d="M291.1,94.9l8,18.1l-17.7,8.2l-8-18.1L291.1,94.9 M291.6,93.5l-19.5,9l8.9,19.9l19.5-9L291.6,93.5L291.6,93.5z
		"/>
</g>
<g>
	<polygon class="st6" points="255.5,51.1 252.8,40.9 255.6,40.1 257.7,47.9 266.8,47.1 269.3,56.1 278.4,55.3 281.2,65.5 
		278.4,66.3 276.3,58.5 267.1,59.3 264.7,50.3 	"/>
</g>
<g>
	<path class="st7" d="M227.1,107.3c-4.8,0-8.7-4-8.7-8.9s3.9-8.9,8.7-8.9s8.7,4,8.7,8.9S232,107.3,227.1,107.3z"/>
	<path class="st3" d="M227.1,89.9c4.5,0,8.2,3.8,8.2,8.4s-3.7,8.4-8.2,8.4s-8.2-3.8-8.2-8.4S222.6,89.9,227.1,89.9 M227.1,88.9
		c-5.1,0-9.2,4.2-9.2,9.4s4.1,9.4,9.2,9.4c5.1,0,9.2-4.2,9.2-9.4S232.3,88.9,227.1,88.9L227.1,88.9z"/>
</g>
<g>
	<polygon class="st8" points="173,136.7 194.9,140.8 179.7,162.3 	"/>
	<path class="st3" d="M173.7,137.3l20.3,3.8l-14.1,20L173.7,137.3 M172.3,136l7.1,27.5l16.3-23.1L172.3,136L172.3,136z"/>
</g>
<g>
	<polygon class="st6" points="179.2,93.8 189,97.3 188,100.1 180.5,97.4 176,105.6 167.3,102.5 162.8,110.6 153,107.1 153.9,104.3 
		161.5,107 166,98.8 174.6,101.9 	"/>
</g>
<g>
	<polygon class="st5" points="156.4,61.3 160.1,40.7 180.2,44.5 176.5,65 	"/>
	<path class="st3" d="M160.5,41.3l19.1,3.6l-3.5,19.5L157,60.9L160.5,41.3 M159.7,40.2l-3.9,21.5l21.1,4l3.9-21.5L159.7,40.2
		L159.7,40.2z"/>
</g>
<g>
	<polygon class="st8" points="205.2,23.9 220.4,2.4 227,28 	"/>
	<path class="st3" d="M220.1,3.5l6.2,23.9L206,23.6L220.1,3.5 M220.6,1.2l-16.3,23.1l23.4,4.4L220.6,1.2L220.6,1.2z"/>
</g>
<g>
	
		<rect x="311.9" y="14.6" transform="matrix(0.9106 -0.4134 0.4134 0.9106 18.5526 135.3724)" class="st5" width="20.4" height="20.4"/>
	<path class="st3" d="M327,12l8,17.7l-17.7,8l-8-17.7L327,12 M327.5,10.6L308,19.5l8.9,19.5l19.5-8.9L327.5,10.6L327.5,10.6z"/>
</g>
<g>
	<polygon class="st6" points="373,64.3 370.4,54.3 373.2,53.5 375.2,61.2 384.4,60.5 386.7,69.4 395.9,68.7 398.5,78.7 395.7,79.5 
		393.7,71.8 384.5,72.5 382.2,63.6 	"/>
</g>
<g>
	<path class="st7" d="M411.3,28c-4.8,0-8.7-3.9-8.7-8.7s3.9-8.7,8.7-8.7s8.7,3.9,8.7,8.7S416.1,28,411.3,28z"/>
	<path class="st3" d="M411.3,11c4.5,0,8.2,3.7,8.2,8.2s-3.7,8.2-8.2,8.2s-8.2-3.7-8.2-8.2S406.7,11,411.3,11 M411.3,10
		c-5.1,0-9.2,4.1-9.2,9.2s4.1,9.2,9.2,9.2s9.2-4.1,9.2-9.2S416.4,10,411.3,10L411.3,10z"/>
</g>
<g>
	<path class="st7" d="M339.3,104c-4.8,0-8.7-3.9-8.7-8.7c0-4.8,3.9-8.7,8.7-8.7s8.7,3.9,8.7,8.7S344.1,104,339.3,104z"/>
	<path class="st3" d="M339.3,87c4.5,0,8.2,3.7,8.2,8.2s-3.7,8.2-8.2,8.2s-8.2-3.7-8.2-8.2C331,90.7,334.7,87,339.3,87 M339.3,86
		c-5.1,0-9.2,4.1-9.2,9.2s4.1,9.2,9.2,9.2s9.2-4.1,9.2-9.2S344.4,86,339.3,86L339.3,86z"/>
</g>
<g>
	<polygon class="st8" points="434.8,66.2 453,84.8 432,92.1 	"/>
	<path class="st3" d="M435.2,67.3l16.9,17.2l-19.5,6.8L435.2,67.3 M434.4,65.1l-2.9,27.7L454,85L434.4,65.1L434.4,65.1z"/>
</g>
<g>
	<polygon class="st6" points="455.2,35.3 444.9,36.1 444.7,33.2 452.6,32.6 453.5,23.5 462.7,22.8 463.6,13.7 474,12.9 474.2,15.8 
		466.3,16.4 465.3,25.5 456.2,26.2 	"/>
</g>
<g>
	
		<rect x="373.9" y="113.6" transform="matrix(0.2686 -0.9633 0.9633 0.2686 161.6569 460.589)" class="st5" width="20.4" height="20.4"/>
	<path class="st3" d="M377.4,111.9l18.7,5.2l-5.2,18.7l-18.7-5.2L377.4,111.9 M376.7,110.6l-5.8,20.6l20.6,5.8l5.8-20.6L376.7,110.6
		L376.7,110.6z"/>
</g>
<g>
	<polygon class="st8" points="333.2,175.2 354.6,169.5 349.9,195.1 	"/>
	<path class="st3" d="M354,170.2l-4.4,23.7L334,175.5L354,170.2 M355.3,168.8l-23,6.1l18,21.3L355.3,168.8L355.3,168.8z"/>
</g>
<g>
	<polygon class="st6" points="404.6,180.5 394.3,181.6 393.9,178.7 401.8,177.8 402.5,168.7 411.6,167.7 412.3,158.5 422.6,157.4 
		423,160.3 415.1,161.2 414.4,170.3 405.3,171.3 	"/>
</g>
<g>
	<path class="st7" d="M454.3,144c-4.8,0-8.7-3.9-8.7-8.7s3.9-8.7,8.7-8.7s8.7,3.9,8.7,8.7S459.1,144,454.3,144z"/>
	<path class="st3" d="M454.3,127c4.5,0,8.2,3.7,8.2,8.2s-3.7,8.2-8.2,8.2s-8.2-3.7-8.2-8.2S449.7,127,454.3,127 M454.3,126
		c-5.1,0-9.2,4.1-9.2,9.2s4.1,9.2,9.2,9.2s9.2-4.1,9.2-9.2S459.4,126,454.3,126L454.3,126z"/>
</g>
<g>
	
		<rect x="333.9" y="223.6" transform="matrix(0.9106 -0.4134 0.4134 0.9106 -65.8828 163.1634)" class="st5" width="20.4" height="20.4"/>
	<path class="st3" d="M349,221l8,17.7l-17.7,8l-8-17.7L349,221 M349.5,219.6l-19.5,8.9l8.9,19.5l19.5-8.9L349.5,219.6L349.5,219.6z"
		/>
</g>
<g>
	<polygon class="st6" points="358.9,296.5 361.7,306.5 358.8,307.3 356.7,299.7 347.6,300.5 345.1,291.7 336,292.5 333.2,282.5 
		336.1,281.7 338.2,289.3 347.3,288.5 349.8,297.3 	"/>
</g>
<g>
	<circle class="st7" cx="403.3" cy="243.2" r="8.7"/>
	<path class="st3" d="M403.3,235c4.5,0,8.2,3.7,8.2,8.2s-3.7,8.2-8.2,8.2s-8.2-3.7-8.2-8.2S398.7,235,403.3,235 M403.3,234
		c-5.1,0-9.2,4.1-9.2,9.2s4.1,9.2,9.2,9.2s9.2-4.1,9.2-9.2S408.4,234,403.3,234L403.3,234z"/>
</g>
<g>
	<polygon class="st8" points="435.6,201.7 450.7,180.6 457.4,205.7 	"/>
	<path class="st3" d="M450.5,181.8l6.2,23.3l-20.3-3.7L450.5,181.8 M450.9,179.5l-16.3,22.6l23.4,4.3L450.9,179.5L450.9,179.5z"/>
</g>
<g>
	<polygon class="st6" points="451.3,247.8 441.4,244.3 442.4,241.6 449.9,244.2 454.4,236.2 463.1,239.2 467.6,231.3 477.5,234.7 
		476.5,237.4 469,234.8 464.4,242.8 455.8,239.8 	"/>
</g>
<g>
	
		<rect x="451.9" y="277.7" transform="matrix(0.181 -0.9835 0.9835 0.181 95.3755 690.2336)" class="st5" width="20.4" height="20.4"/>
	<path class="st3" d="M454.4,276.5l19.1,3.5l-3.5,19.1l-19.1-3.5L454.4,276.5 M453.6,275.4l-3.9,21.1l21.1,3.9l3.9-21.1L453.6,275.4
		L453.6,275.4z"/>
</g>
<g>
	<polygon class="st8" points="403.4,312.2 425.3,316.2 410.1,337.3 	"/>
	<path class="st3" d="M404.1,312.8l20.3,3.7l-14.1,19.6L404.1,312.8 M402.7,311.6l7.1,26.9l16.3-22.6L402.7,311.6L402.7,311.6z"/>
</g>
</svg>
